<?xml version="1.0" standalone="no"?>
<!DOCTYPE svg PUBLIC "-//W3C//DTD SVG 20010904//EN"
 "http://www.w3.org/TR/2001/REC-SVG-20010904/DTD/svg10.dtd">
<svg version="1.0" xmlns="http://www.w3.org/2000/svg"
 width="384.000000pt" height="440.000000pt" viewBox="0 0 384.000000 440.000000"
 preserveAspectRatio="xMidYMid meet">
<circle fill="#FFFFFF" cx="200" cy="200" r="170"></circle>
<g transform="translate(0.000000,440.000000) scale(0.100000,-0.100000)"
fill="#79bd9a" stroke="none">
<path d="M1643 4384 c-445 -64 -874 -296 -1164 -627 -252 -288 -409 -628 -465
-1010 -25 -170 -15 -489 20 -654 81 -380 255 -702 526 -973 168 -168 373 -310
580 -400 l95 -41 343 -342 342 -342 343 342 342 342 95 41 c207 90 412 232
580 400 271 271 445 593 526 973 22 101 27 158 31 332 6 236 -6 353 -57 549
-191 741 -825 1302 -1591 1411 -129 18 -419 18 -546 -1z m520 -405 c209 -34
383 -99 547 -206 254 -166 427 -356 545 -598 175 -359 205 -754 88 -1130 -125
-398 -496 -786 -893 -932 -36 -13 -74 -28 -85 -33 -11 -5 -76 -21 -145 -36
-105 -22 -152 -26 -290 -27 -230 -1 -367 27 -605 120 -162 64 -383 228 -531
393 -111 124 -242 354 -292 510 -54 169 -72 286 -73 470 0 194 38 391 108 553
18 43 33 83 33 88 0 5 28 55 62 112 256 426 676 685 1188 735 106 11 192 6
343 -19z"/>
</g>
<g transform="translate(65.00000,60.00000) scale(0.4)"
fill="#79bd9a" stroke="none">
<path fill="#79bd9a" d="M624 448h-24.68L359.54 117.75l53.41-73.55c5.19-7.15 3.61-17.16-3.54-22.35l-25.9-18.79c-7.15-5.19-17.15-3.61-22.35 3.55L320 63.3 278.83 6.6c-5.19-7.15-15.2-8.74-22.35-3.55l-25.88 18.8c-7.15 5.19-8.74 15.2-3.54 22.35l53.41 73.55L40.68 448H16c-8.84 0-16 7.16-16 16v32c0 8.84 7.16 16 16 16h608c8.84 0 16-7.16 16-16v-32c0-8.84-7.16-16-16-16zM320 288l116.36 160H203.64L320 288z"></path>
</g>
</svg>
