<?xml version="1.0" standalone="no"?>
<!DOCTYPE svg PUBLIC "-//W3C//DTD SVG 20010904//EN"
 "http://www.w3.org/TR/2001/REC-SVG-20010904/DTD/svg10.dtd">
<svg version="1.0" xmlns="http://www.w3.org/2000/svg"
 width="384.000000pt" height="440.000000pt" viewBox="0 0 384.000000 440.000000"
 preserveAspectRatio="xMidYMid meet">
<circle fill="#FFFFFF" cx="200" cy="200" r="170"></circle>
<g transform="translate(0.000000,440.000000) scale(0.100000,-0.100000)"
fill="#000000" stroke="none">
<path d="M1643 4384 c-445 -64 -874 -296 -1164 -627 -252 -288 -409 -628 -465
-1010 -25 -170 -15 -489 20 -654 81 -380 255 -702 526 -973 168 -168 373 -310
580 -400 l95 -41 343 -342 342 -342 343 342 342 342 95 41 c207 90 412 232
580 400 271 271 445 593 526 973 22 101 27 158 31 332 6 236 -6 353 -57 549
-191 741 -825 1302 -1591 1411 -129 18 -419 18 -546 -1z m520 -405 c209 -34
383 -99 547 -206 254 -166 427 -356 545 -598 175 -359 205 -754 88 -1130 -125
-398 -496 -786 -893 -932 -36 -13 -74 -28 -85 -33 -11 -5 -76 -21 -145 -36
-105 -22 -152 -26 -290 -27 -230 -1 -367 27 -605 120 -162 64 -383 228 -531
393 -111 124 -242 354 -292 510 -54 169 -72 286 -73 470 0 194 38 391 108 553
18 43 33 83 33 88 0 5 28 55 62 112 256 426 676 685 1188 735 106 11 192 6
343 -19z"/>
<path d="M2699 3622 c-38 -29 -71 -61 -196 -193 -77 -81 -83 -90 -109 -175
l-27 -89 -185 -187 -185 -187 -26 18 c-87 60 -187 85 -315 79 -76 -3 -102 -9
-156 -36 -100 -47 -176 -133 -210 -236 -14 -44 -70 -110 -111 -131 -15 -8 -67
-23 -117 -34 -123 -27 -196 -63 -262 -130 -96 -97 -140 -209 -140 -355 0 -195
87 -377 254 -533 82 -76 212 -149 321 -180 71 -20 219 -29 249 -15 12 5 46 17
76 26 30 9 72 26 94 39 60 37 142 124 170 181 27 54 56 154 56 194 0 12 7 37
16 55 36 70 62 93 167 145 78 39 116 64 146 98 124 141 142 333 49 522 l-41
84 179 179 c98 98 182 179 187 179 4 0 49 14 100 32 l92 32 133 130 c74 72
140 143 148 158 17 32 18 86 4 124 -13 33 -152 178 -202 210 -52 33 -112 32
-159 -4z m-958 -1209 c37 -19 63 -42 84 -73 27 -41 30 -53 30 -125 0 -74 -2
-84 -32 -127 -85 -122 -260 -130 -357 -16 -73 85 -72 202 3 289 69 82 173 101
272 52z"/>
</g>
</svg>
