<?xml version="1.0" standalone="no"?>
<!DOCTYPE svg PUBLIC "-//W3C//DTD SVG 20010904//EN"
 "http://www.w3.org/TR/2001/REC-SVG-20010904/DTD/svg10.dtd">
<svg version="1.0" xmlns="http://www.w3.org/2000/svg"
 width="384.000000pt" height="440.000000pt" viewBox="0 0 384.000000 440.000000"
 preserveAspectRatio="xMidYMid meet">
<circle fill="#FFFFFF" cx="200" cy="200" r="170"></circle>
<g transform="translate(0.000000,440.000000) scale(0.100000,-0.100000)"
fill="#FFBC42" stroke="none">
<path d="M1643 4384 c-445 -64 -874 -296 -1164 -627 -252 -288 -409 -628 -465
-1010 -25 -170 -15 -489 20 -654 81 -380 255 -702 526 -973 168 -168 373 -310
580 -400 l95 -41 343 -342 342 -342 343 342 342 342 95 41 c207 90 412 232
580 400 271 271 445 593 526 973 22 101 27 158 31 332 6 236 -6 353 -57 549
-191 741 -825 1302 -1591 1411 -129 18 -419 18 -546 -1z m520 -405 c209 -34
383 -99 547 -206 254 -166 427 -356 545 -598 175 -359 205 -754 88 -1130 -125
-398 -496 -786 -893 -932 -36 -13 -74 -28 -85 -33 -11 -5 -76 -21 -145 -36
-105 -22 -152 -26 -290 -27 -230 -1 -367 27 -605 120 -162 64 -383 228 -531
393 -111 124 -242 354 -292 510 -54 169 -72 286 -73 470 0 194 38 391 108 553
18 43 33 83 33 88 0 5 28 55 62 112 256 426 676 685 1188 735 106 11 192 6
343 -19z"/>
<path d="M1865 3745 c-31 -15 -1098 -1079 -1129 -1125 -20 -31 -21 -99 0 -128
25 -36 54 -47 139 -52 l80 -5 5 -460 c6 -508 3 -486 72 -552 68 -66 27 -63
886 -63 869 0 819 -4 891 71 70 71 71 78 71 571 l0 438 70 0 c73 0 123 17 147
49 20 28 25 78 9 113 -18 42 -1111 1133 -1149 1148 -38 13 -56 12 -92 -5z
m423 -638 l362 -363 -2 -574 -3 -575 -122 -3 -123 -3 0 306 c0 197 -4 323 -12
353 -12 52 -40 97 -77 127 -64 51 -56 50 -396 50 l-321 0 -49 -35 c-34 -24
-59 -52 -77 -90 l-28 -54 0 -328 0 -328 -125 0 -125 0 0 580 0 581 358 359
c196 197 362 359 367 359 6 1 173 -162 373 -362z m-133 -917 c3 -5 6 -141 6
-302 l0 -293 -243 0 -243 0 -3 290 c-1 159 0 295 3 302 6 16 470 19 480 3z"/>
</g>
</svg>
