<?xml version="1.0" standalone="no"?>
<!DOCTYPE svg PUBLIC "-//W3C//DTD SVG 20010904//EN"
 "http://www.w3.org/TR/2001/REC-SVG-20010904/DTD/svg10.dtd">
<svg version="1.0" xmlns="http://www.w3.org/2000/svg"
 width="384.000000pt" height="440.000000pt" viewBox="0 0 384.000000 440.000000"
 preserveAspectRatio="xMidYMid meet">
<circle fill="#FFFFFF" cx="200" cy="200" r="170"></circle>
<g transform="translate(0.000000,440.000000) scale(0.100000,-0.100000)"
fill="#FFBC42" stroke="none">
<path d="M1643 4384 c-445 -64 -874 -296 -1164 -627 -252 -288 -409 -628 -465
-1010 -25 -170 -15 -489 20 -654 81 -380 255 -702 526 -973 168 -168 373 -310
580 -400 l95 -41 343 -342 342 -342 343 342 342 342 95 41 c207 90 412 232
580 400 271 271 445 593 526 973 22 101 27 158 31 332 6 236 -6 353 -57 549
-191 741 -825 1302 -1591 1411 -129 18 -419 18 -546 -1z m520 -405 c209 -34
383 -99 547 -206 254 -166 427 -356 545 -598 175 -359 205 -754 88 -1130 -125
-398 -496 -786 -893 -932 -36 -13 -74 -28 -85 -33 -11 -5 -76 -21 -145 -36
-105 -22 -152 -26 -290 -27 -230 -1 -367 27 -605 120 -162 64 -383 228 -531
393 -111 124 -242 354 -292 510 -54 169 -72 286 -73 470 0 194 38 391 108 553
18 43 33 83 33 88 0 5 28 55 62 112 256 426 676 685 1188 735 106 11 192 6
343 -19z"/>
<path d="M814 3256 c-36 -20 -53 -37 -69 -69 -13 -26 -15 -124 -15 -729 0
-672 1 -700 19 -737 34 -66 94 -89 147 -55 41 28 49 53 54 184 l5 125 965 0
965 0 5 -125 c5 -131 13 -156 54 -184 53 -34 113 -11 147 55 18 36 19 62 19
470 0 277 -4 446 -11 473 -25 95 -34 123 -52 156 -52 95 -133 163 -242 200
-54 19 -84 20 -445 20 -386 0 -387 0 -431 -23 -24 -13 -57 -43 -74 -66 l-30
-43 -5 -361 -5 -362 -430 0 -430 0 -5 506 c-5 481 -6 508 -24 528 -18 20 -73
52 -85 50 -3 -1 -16 -6 -27 -13z"/>
<path d="M1305 2926 c-74 -23 -96 -36 -144 -84 -81 -81 -113 -179 -91 -280 27
-129 121 -228 240 -253 284 -60 492 241 335 487 -69 107 -223 166 -340 130z"/>
</g>
</svg>
