<?xml version="1.0" standalone="no"?>
<!DOCTYPE svg PUBLIC "-//W3C//DTD SVG 20010904//EN"
 "http://www.w3.org/TR/2001/REC-SVG-20010904/DTD/svg10.dtd">
<svg version="1.0" xmlns="http://www.w3.org/2000/svg"
 width="384.000000pt" height="440.000000pt" viewBox="0 0 384.000000 440.000000"
 preserveAspectRatio="xMidYMid meet">
<circle fill="#FFFFFF" cx="200" cy="200" r="170"></circle>
<g transform="translate(0.000000,440.000000) scale(0.100000,-0.100000)"
fill="#79bd9a" stroke="none">
<path d="M1643 4384 c-445 -64 -874 -296 -1164 -627 -252 -288 -409 -628 -465
-1010 -25 -170 -15 -489 20 -654 81 -380 255 -702 526 -973 168 -168 373 -310
580 -400 l95 -41 343 -342 342 -342 343 342 342 342 95 41 c207 90 412 232
580 400 271 271 445 593 526 973 22 101 27 158 31 332 6 236 -6 353 -57 549
-191 741 -825 1302 -1591 1411 -129 18 -419 18 -546 -1z m520 -405 c209 -34
383 -99 547 -206 254 -166 427 -356 545 -598 175 -359 205 -754 88 -1130 -125
-398 -496 -786 -893 -932 -36 -13 -74 -28 -85 -33 -11 -5 -76 -21 -145 -36
-105 -22 -152 -26 -290 -27 -230 -1 -367 27 -605 120 -162 64 -383 228 -531
393 -111 124 -242 354 -292 510 -54 169 -72 286 -73 470 0 194 38 391 108 553
18 43 33 83 33 88 0 5 28 55 62 112 256 426 676 685 1188 735 106 11 192 6
343 -19z"/>
</g>
<g transform="translate(73.00000,65.00000) scale(10)"
fill="#79bd9a" stroke="none">
<circle cx="4.5" cy="9.5" r="2.5"></circle><circle cx="9" cy="5.5" r="2.5"></circle><circle cx="15" cy="5.5" r="2.5"></circle><circle cx="19.5" cy="9.5" r="2.5"></circle><path d="M17.35 14.86c-.87-1.02-1.61-2.39-2.49-3.41C13.61 9.98 12.73 10 12 10c-.78 0-1.61.01-2.87 1.46-.87 1.02-1.59 2.39-2.47 3.41-1.31 1.31-2.92 2.76-2.62 4.79.29 1.02 1.02 2.03 2.33 2.32.73.15 3.15-.44 5.63-.44 2.77 0 4.89.58 5.63.44 1.31-.29 2.04-1.31 2.33-2.32.31-2.04-1.3-3.49-2.61-4.8z"></path>
</g>
</svg>
